<svg version="1.0" xmlns="http://www.w3.org/2000/svg"
 width="1472.000000pt" height="1472.000000pt" viewBox="0 0 1472.000000 1472.000000">
  <g transform="translate(0.000000,1472.000000) scale(0.100000,-0.100000)"
  fill="#f26823" stroke="none">
    <path d="M10639 10866 c-2 -2 -78 -7 -169 -10 -91 -4 -178 -9 -195 -11 -16 -2
    -57 -6 -89 -10 -33 -3 -62 -7 -65 -9 -3 -2 -31 -7 -61 -11 -30 -3 -95 -16
    -145 -27 -49 -11 -97 -21 -105 -23 -13 -3 -114 -30 -145 -39 -5 -2 -23 -6 -40
    -11 -97 -26 -500 -187 -515 -205 -5 -7 -38 -21 -43 -18 -1 1 -21 -11 -44 -25
    -24 -15 -45 -27 -48 -27 -2 0 -34 -18 -70 -40 -36 -22 -68 -40 -70 -40 -5 0
    -65 -39 -130 -84 -74 -52 -191 -141 -193 -148 -2 -4 -8 -8 -13 -8 -5 0 -17 -8
    -27 -17 -10 -10 -42 -38 -72 -63 -126 -106 -710 -679 -710 -697 0 -10 1621
    -1635 1626 -1631 39 34 464 464 464 470 0 4 3 8 8 8 4 0 39 30 77 65 39 36 73
    65 77 65 4 0 13 6 20 13 24 23 94 67 106 67 7 0 12 3 12 8 0 13 192 95 255
    108 6 1 33 7 60 14 130 30 344 32 485 5 33 -7 143 -38 185 -54 35 -13 218
    -105 229 -116 6 -5 30 -23 54 -39 52 -36 164 -144 218 -211 92 -113 186 -304
    219 -445 24 -97 30 -162 30 -295 -1 -151 -8 -204 -45 -330 -7 -22 -12 -42 -12
    -45 0 -3 -5 -14 -11 -25 -6 -11 -12 -22 -12 -25 -1 -3 -7 -18 -13 -33 -7 -16
    -12 -33 -12 -38 0 -5 -4 -9 -9 -9 -5 0 -12 -11 -15 -24 -18 -72 -186 -279
    -301 -371 -28 -22 -52 -43 -55 -46 -31 -34 -331 -178 -375 -179 -3 0 -6 0 -7
    -1 -21 -6 -82 -19 -128 -26 -56 -10 -280 -10 -340 -1 -41 6 -126 26 -205 48
    -16 4 -57 20 -90 36 -33 15 -63 27 -67 26 -3 -1 -12 5 -18 13 -7 8 -17 15 -22
    15 -11 0 -132 78 -165 106 -12 11 -39 33 -60 51 -22 18 -66 59 -98 93 -512
    518 -3193 3190 -3294 3281 -31 28 -74 68 -96 88 -22 20 -67 59 -100 86 -33 28
    -61 53 -63 58 -2 4 -10 7 -17 7 -7 0 -15 4 -17 8 -1 5 -30 28 -63 53 -33 24
    -66 49 -73 56 -6 6 -21 15 -32 18 -11 3 -20 10 -20 14 0 5 -13 14 -30 21 -16
    7 -30 16 -30 21 0 4 -10 11 -22 15 -13 4 -25 10 -28 14 -3 4 -45 30 -95 59
    -49 28 -97 56 -105 61 -8 6 -24 14 -35 19 -11 5 -68 32 -126 60 -58 28 -109
    51 -113 51 -4 0 -31 11 -59 24 -29 13 -70 29 -92 36 -22 7 -49 16 -60 21 -135
    53 -463 129 -621 145 -68 7 -99 11 -99 14 0 4 -217 12 -330 13 -121 0 -337 -9
    -395 -17 -14 -2 -50 -7 -80 -10 -30 -4 -95 -14 -145 -22 -49 -9 -101 -17 -115
    -19 -14 -2 -25 -4 -25 -5 0 -2 -19 -6 -60 -13 -16 -3 -37 -8 -45 -11 -8 -3
    -31 -8 -50 -11 -37 -6 -63 -12 -67 -15 -3 -3 -3 -3 -53 -14 -19 -5 -39 -11
    -45 -14 -5 -4 -18 -8 -27 -9 -10 -2 -57 -17 -105 -34 -48 -17 -92 -32 -98 -33
    -5 -2 -27 -10 -47 -20 -21 -9 -39 -16 -42 -16 -2 0 -26 -10 -53 -22 -26 -12
    -50 -22 -53 -22 -15 -3 -266 -132 -268 -138 -2 -4 -8 -8 -14 -8 -6 0 -30 -12
    -55 -27 -80 -51 -294 -193 -308 -206 -8 -6 -27 -22 -42 -34 -134 -104 -204
    -166 -312 -273 -129 -129 -191 -197 -191 -211 0 -7 -3 -9 -6 -6 -4 4 -23 -15
    -43 -41 -42 -55 -61 -79 -79 -97 -6 -8 -12 -18 -12 -23 0 -6 -4 -12 -8 -14 -5
    -1 -28 -32 -53 -68 -24 -36 -47 -67 -50 -70 -8 -7 -132 -209 -147 -240 -18
    -36 -36 -66 -49 -81 -6 -8 -11 -18 -11 -22 0 -4 -16 -40 -35 -80 -70 -142
    -137 -306 -171 -417 -10 -30 -21 -64 -26 -75 -19 -42 -93 -347 -105 -430 -3
    -23 -8 -52 -10 -65 -3 -14 -7 -45 -10 -70 -3 -25 -8 -56 -10 -70 -25 -138 -25
    -612 0 -810 2 -14 6 -47 9 -75 3 -27 8 -61 11 -75 3 -14 8 -41 11 -60 12 -87
    66 -308 93 -389 12 -35 20 -66 17 -69 -3 -3 -2 -10 3 -16 5 -6 16 -31 24 -56
    34 -97 65 -177 86 -219 11 -25 21 -51 21 -58 0 -7 5 -13 12 -13 6 0 8 -3 5 -6
    -6 -6 74 -168 148 -299 44 -80 211 -329 234 -349 12 -11 21 -24 21 -29 0 -5
    11 -20 26 -33 14 -13 22 -24 19 -24 -4 0 0 -6 7 -13 7 -8 38 -42 68 -77 65
    -75 267 -279 331 -333 88 -75 105 -88 159 -130 30 -23 57 -44 60 -47 20 -20
    278 -190 289 -190 5 0 11 -4 13 -9 2 -5 20 -17 40 -27 152 -76 254 -130 259
    -137 3 -5 9 -8 13 -8 3 1 20 -6 36 -14 16 -8 33 -16 37 -17 5 -1 24 -8 43 -16
    69 -29 85 -35 95 -38 6 -2 48 -17 95 -35 78 -29 281 -90 340 -103 14 -3 66
    -15 115 -26 50 -11 106 -22 125 -25 51 -7 92 -14 120 -19 14 -3 54 -8 90 -11
    36 -3 85 -8 110 -11 62 -7 483 -12 494 -6 5 3 35 7 65 8 70 4 131 10 211 23
    34 6 65 10 69 9 3 0 8 1 11 2 9 3 35 8 75 15 22 3 48 8 57 11 10 3 30 7 45 10
    39 7 240 62 298 81 28 10 52 18 55 18 8 2 41 15 95 36 28 10 56 19 63 19 6 0
    12 5 12 12 0 6 3 9 6 6 6 -7 53 13 192 78 51 24 96 44 101 44 5 0 11 4 13 8 2
    4 21 17 43 28 35 18 132 74 235 137 87 53 346 253 411 316 15 14 57 53 95 86
    101 89 564 554 564 567 0 5 -102 113 -227 238 -126 126 -488 490 -806 810
    l-579 581 -253 -253 c-278 -278 -311 -309 -370 -353 -22 -16 -42 -31 -45 -34
    -24 -27 -250 -135 -325 -155 -96 -27 -133 -34 -205 -43 -110 -13 -323 -3 -360
    17 -10 5 -20 7 -23 4 -3 -3 -20 -1 -39 5 -120 39 -167 55 -198 71 -19 10 -56
    28 -82 41 -27 13 -48 27 -48 31 0 5 -5 8 -11 8 -22 0 -145 99 -214 173 -74 79
    -77 83 -115 137 -14 19 -27 37 -30 40 -3 3 -16 25 -29 50 -109 201 -154 370
    -154 575 -1 179 22 319 69 422 8 17 14 34 14 38 0 13 72 150 108 204 105 159
    268 304 440 391 127 64 192 85 352 114 76 14 308 15 365 2 16 -4 42 -8 57 -9
    15 -1 28 -6 28 -11 0 -5 2 -7 5 -4 6 5 70 -13 163 -47 44 -15 133 -61 183 -93
    15 -9 41 -26 58 -37 17 -10 31 -23 31 -27 0 -4 5 -8 11 -8 16 0 -44 60 1304
    -1285 1595 -1591 2255 -2242 2302 -2268 13 -8 68 -55 114 -99 9 -9 20 -14 23
    -10 3 3 6 0 6 -6 0 -5 15 -19 33 -31 17 -11 41 -28 53 -38 11 -10 27 -22 36
    -28 68 -44 207 -137 223 -149 10 -9 23 -16 27 -16 4 0 36 -17 71 -39 72 -44
    261 -137 357 -176 36 -14 74 -30 85 -36 36 -17 295 -99 314 -99 10 0 21 -3 25
    -7 3 -4 14 -8 24 -9 21 -3 57 -12 57 -14 0 -1 9 -3 20 -5 32 -4 87 -15 135
    -25 56 -12 110 -20 175 -26 28 -3 68 -7 90 -10 183 -22 564 -16 745 11 14 2
    48 6 75 10 75 8 117 14 145 21 14 3 35 7 47 9 12 2 34 6 50 9 15 4 42 9 58 12
    17 2 44 9 60 14 17 5 41 11 55 14 36 6 228 61 275 79 22 8 56 20 75 27 153 54
    336 136 470 211 41 23 88 48 104 57 30 15 243 154 261 169 6 5 37 29 69 53 32
    25 71 54 85 65 14 11 31 24 37 30 6 5 37 33 69 60 101 87 251 241 373 382 86
    99 302 408 302 431 0 6 3 12 8 14 18 8 197 369 245 493 19 50 38 99 42 110 5
    11 9 22 10 25 1 5 31 104 62 203 8 26 16 56 18 65 2 9 4 17 5 17 1 0 3 7 5 15
    37 169 48 226 60 300 31 202 39 310 39 550 0 268 -9 376 -50 620 -15 91 -15
    89 -39 195 -9 39 -19 81 -22 95 -2 14 -8 34 -13 45 -4 11 -13 40 -20 65 -38
    142 -143 404 -225 564 -66 131 -87 168 -96 176 -3 3 -20 32 -39 65 -19 33 -36
    62 -40 65 -3 3 -16 21 -27 40 -18 29 -110 157 -140 195 -4 6 -26 33 -47 60
    -22 28 -50 61 -63 75 -12 14 -35 39 -49 55 -130 148 -327 327 -499 455 -33 25
    -62 47 -65 50 -3 3 -12 10 -21 15 -9 6 -40 26 -70 46 -257 171 -532 307 -827
    410 -92 31 -325 97 -370 104 -15 3 -46 9 -70 15 -23 5 -59 13 -80 16 -20 3
    -50 7 -67 10 -16 2 -43 7 -58 10 -15 3 -49 7 -75 9 -26 2 -47 4 -47 5 0 3 -75
    9 -199 15 -71 3 -133 8 -136 10 -4 3 -9 3 -11 1z"/>
  </g>
</svg>